<?xml version="1.0" encoding="UTF-8"?>
<svg xmlns="http://www.w3.org/2000/svg" width="24" height="24" viewBox="0 0 24 24" fill="none">
  <path d="M12 15.5A3.5 3.5 0 1 0 12 8.5a3.5 3.5 0 0 0 0 7z" fill="#E6EEF3"/>
  <path d="M19.4 15a1 1 0 0 0 .2 1.1l.7.7a1 1 0 0 1-1.4 1.4l-.7-.7a1 1 0 0 0-1.1-.2 6.9 6.9 0 0 1-1.6.9 1 1 0 0 0-.6 1v1a1 1 0 0 1-1 1h-1a1 1 0 0 1-1-1v-1a1 1 0 0 0-.6-1 6.9 6.9 0 0 1-1.6-.9 1 1 0 0 0-1.1.2l-.7.7a1 1 0 1 1-1.4-1.4l.7-.7a1 1 0 0 0 .2-1.1 6.9 6.9 0 0 1-.9-1.6 1 1 0 0 0-1-.6H4a1 1 0 0 1-1-1v-1a1 1 0 0 1 1-1h1a1 1 0 0 0 1-.6c.2-.6.5-1.1.9-1.6a1 1 0 0 0-.2-1.1l-.7-.7A1 1 0 0 1 6.8 4.6l.7.7c.3.3.7.4 1.1.2.6-.2 1.1-.5 1.6-.9a1 1 0 0 0 .6-1V3a1 1 0 0 1 1-1h1a1 1 0 0 1 1 1v1c0 .4.3.8.6 1 .6.2 1.1.5 1.6.9.4.3.8.2 1.1-.2l.7-.7a1 1 0 1 1 1.4 1.4l-.7.7a1 1 0 0 0-.2 1.1c.2.6.5 1.1.9 1.6.2.3.5.6.8.8.6.4.8 1.1.4 1.7-.2.3-.5.6-.8.8-.5.4-.9.9-1.1 1.6z" fill="#94A3B8"/>
</svg>
